<svg width="38" height="38" viewBox="0 0 38 38" fill="none" xmlns="http://www.w3.org/2000/svg">
<rect x="0.5" y="0.5" width="37" height="37" rx="18.5" fill="#00BEFF"/>
<g clip-path="url(#clip0_2_232)">
<path d="M27.672 26.182L24.216 22.726C25.056 21.646 25.578 20.428 25.782 19.072C25.974 17.764 25.854 16.48 25.422 15.22C24.966 13.936 24.222 12.841 23.19 11.935C22.158 11.029 20.976 10.426 19.644 10.126C18.348 9.838 17.064 9.874 15.792 10.234C14.472 10.606 13.326 11.272 12.354 12.232C11.382 13.192 10.704 14.326 10.32 15.634C9.94803 16.918 9.89403 18.208 10.158 19.504C10.434 20.836 11.022 22.021 11.922 23.059C12.822 24.097 13.914 24.856 15.198 25.336C16.434 25.792 17.712 25.924 19.032 25.732C20.388 25.552 21.612 25.048 22.704 24.22L26.178 27.694C26.382 27.898 26.631 28 26.925 28C27.219 28 27.471 27.895 27.681 27.685C27.891 27.475 27.993 27.223 27.987 26.929C27.981 26.635 27.876 26.386 27.672 26.182ZM13.83 22.024C13.182 21.376 12.717 20.629 12.435 19.783C12.153 18.937 12.066 18.067 12.174 17.173C12.282 16.279 12.591 15.454 13.101 14.698C13.611 13.942 14.253 13.342 15.027 12.898C15.801 12.454 16.635 12.199 17.529 12.133C18.423 12.067 19.293 12.211 20.139 12.565C20.985 12.919 21.702 13.432 22.29 14.104C22.878 14.776 23.289 15.547 23.523 16.417C23.757 17.287 23.784 18.166 23.604 19.054C23.424 19.942 23.061 20.743 22.515 21.457C21.969 22.171 21.294 22.726 20.49 23.122C19.686 23.518 18.828 23.716 17.916 23.716C17.148 23.716 16.41 23.569 15.702 23.275C14.994 22.981 14.37 22.564 13.83 22.024Z" fill="white"/>
</g>
<rect x="0.5" y="0.5" width="37" height="37" rx="18.5" stroke="#00BEFF"/>
<defs>
<clipPath id="clip0_2_232">
<rect width="18" height="20" fill="white" transform="matrix(1 0 0 -1 10 29)"/>
</clipPath>
</defs>
</svg>
