<svg width="18" height="32" viewBox="0 0 18 32" fill="none" xmlns="http://www.w3.org/2000/svg">
<g clip-path="url(#clip0_2_238)">
<path d="M9.01347 16.095C10.1015 16.095 11.1055 15.827 12.0255 15.291C12.9455 14.755 13.6735 14.027 14.2095 13.107C14.7455 12.187 15.0135 11.183 15.0135 10.095C15.0135 9.007 14.7455 8.003 14.2095 7.083C13.6735 6.163 12.9455 5.435 12.0255 4.899C11.1055 4.363 10.1015 4.095 9.01347 4.095C7.92547 4.095 6.92147 4.363 6.00147 4.899C5.08147 5.435 4.35347 6.163 3.81747 7.083C3.28147 8.003 3.01347 9.007 3.01347 10.095C3.01347 11.183 3.28147 12.187 3.81747 13.107C4.35347 14.027 5.08147 14.755 6.00147 15.291C6.92147 15.827 7.92547 16.095 9.01347 16.095ZM9.01347 6.087C9.73347 6.087 10.4015 6.267 11.0175 6.627C11.6335 6.987 12.1215 7.475 12.4815 8.091C12.8415 8.707 13.0215 9.375 13.0215 10.095C13.0215 10.815 12.8415 11.483 12.4815 12.099C12.1215 12.715 11.6335 13.203 11.0175 13.563C10.4015 13.923 9.73347 14.103 9.01347 14.103C8.29347 14.103 7.62547 13.923 7.00947 13.563C6.39347 13.203 5.90547 12.715 5.54547 12.099C5.18547 11.483 5.00547 10.815 5.00547 10.095C5.00547 9.375 5.18547 8.707 5.54547 8.091C5.90547 7.475 6.39347 6.987 7.00947 6.627C7.62547 6.267 8.29347 6.087 9.01347 6.087ZM9.01347 18.087C7.38147 18.087 5.86947 18.495 4.47747 19.311C3.11747 20.111 2.03747 21.191 1.23747 22.551C0.42147 23.943 0.0134701 25.455 0.0134701 27.087C-0.0185299 27.279 0.00547015 27.467 0.0854701 27.651C0.16547 27.835 0.28947 27.979 0.45747 28.083C0.62547 28.187 0.80947 28.239 1.00947 28.239C1.20947 28.239 1.39347 28.187 1.56147 28.083C1.72947 27.979 1.85347 27.835 1.93347 27.651C2.01347 27.467 2.03747 27.279 2.00547 27.087C2.00547 25.823 2.32547 24.647 2.96547 23.559C3.58947 22.503 4.42947 21.663 5.48547 21.039C6.57347 20.399 7.74947 20.079 9.01347 20.079C10.2775 20.079 11.4535 20.399 12.5415 21.039C13.5975 21.663 14.4375 22.503 15.0615 23.559C15.7015 24.647 16.0215 25.823 16.0215 27.087C16.0535 27.327 16.1655 27.531 16.3575 27.699C16.5495 27.867 16.7695 27.951 17.0175 27.951C17.2655 27.951 17.4855 27.867 17.6775 27.699C17.8695 27.531 17.9815 27.327 18.0135 27.087C18.0135 25.455 17.6055 23.943 16.7895 22.551C15.9895 21.191 14.9095 20.111 13.5495 19.311C12.1575 18.495 10.6455 18.087 9.01347 18.087Z" fill="black"/>
</g>
<defs>
<clipPath id="clip0_2_238">
<rect width="18" height="31.19" fill="white" transform="matrix(1 0 0 -1 0 31.69)"/>
</clipPath>
</defs>
</svg>
